<?xml version="1.0"?>
<svg width="216" height="306" xmlns="http://www.w3.org/2000/svg" xmlns:svg="http://www.w3.org/2000/svg" preserveAspectRatio="xMidYMid" version="1.1">
 <g class="layer">
  <title>Layer 1</title>
  <g id="svg_1">
   <path d="m69.34,236.54c0,0 -11.07,6.79 7.89,9.09c22.97,2.76 34.7,2.36 60,-2.69c0,0 6.65,4.39 15.95,8.21c-56.73,25.62 -128.39,-1.48 -83.84,-14.61" fill="#5382A1" id="svg_2"/>
   <path d="m62.42,203.1c0,0 -12.42,9.69 6.56,11.76c24.53,2.66 43.9,2.88 77.42,-3.93c0,0 4.64,4.96 11.93,7.67c-68.59,21.13 -144.99,1.67 -95.9,-15.5" fill="#5382A1" id="svg_3"/>
   <path d="m120.85,146.38c13.98,16.97 -3.67,32.23 -3.67,32.23c0,0 35.5,-19.31 19.19,-43.5c-15.23,-22.55 -26.9,-33.75 36.3,-72.38c0,0 -99.21,26.11 -51.83,83.64" fill="#E76F00" id="svg_4"/>
   <path d="m195.88,261.26c0,0 8.2,7.12 -9.02,12.63c-32.75,10.45 -136.29,13.61 -165.06,0.42c-10.34,-4.74 9.06,-11.31 15.15,-12.7c6.36,-1.45 9.99,-1.18 9.99,-1.18c-11.5,-8.54 -74.32,16.75 -31.91,24.01c115.66,19.77 210.85,-8.91 180.84,-23.16" fill="#5382A1" id="svg_5"/>
   <path d="m74.68,168.46c0,0 -52.67,13.18 -18.65,17.97c14.36,2.03 43,1.58 69.67,-0.78c21.8,-1.94 43.69,-6.05 43.69,-6.05c0,0 -7.69,3.48 -13.25,7.47c-53.48,14.83 -156.81,7.93 -127.06,-7.23c25.15,-12.81 45.61,-11.36 45.61,-11.36" fill="#5382A1" id="svg_6"/>
   <path d="m169.16,224.11c54.37,-29.78 29.22,-58.38 11.68,-54.53c-4.3,0.94 -6.22,1.76 -6.22,1.76c0,0 1.6,-2.63 4.65,-3.78c34.71,-12.85 61.41,37.93 -11.21,58.05c0,0 0.84,-0.79 1.1,-1.5" fill="#5382A1" id="svg_7"/>
   <path d="m136.37,0.37c0,0 30.11,31.74 -28.56,80.55c-47.05,39.15 -10.73,61.48 -0.02,86.98c-27.46,-26.11 -47.62,-49.1 -34.1,-70.49c19.86,-31.41 74.83,-46.63 62.68,-97.05" fill="#E76F00" id="svg_8"/>
   <path d="m80.02,304.8c52.19,3.52 132.33,-1.95 134.22,-27.97c0,0 -3.65,9.86 -43.13,17.7c-44.54,8.83 -99.49,7.81 -132.07,2.14c0,0 6.67,5.82 40.97,8.14" fill="#5382A1" id="svg_9"/>
  </g>
 </g>
</svg>